<svg id="Layer_1" data-name="Layer 1" xmlns="http://www.w3.org/2000/svg" viewBox="0 0 447.96 512.04"><defs><style>.cls-1{fill:#fff;}</style></defs><path class="cls-1" d="M.12,494.1A16,16,0,0,0,16.06,512l32.06.06c8.12,0,15.21-5.83,16.21-13.83.75-4.87,1.87-11.17,3.49-18.17h312c1.63,6.88,2.91,13.31,3.53,18.18,1.13,7.1,7.84,13.94,16,13.82l32.46-.06a16,16,0,0,0,16-17.87C443.15,456.23,422,366,328.67,286.4a496.28,496.28,0,0,1-58.48,35.49c6.25,4.63,11.56,9.41,17.06,14.15H159.7c21.25-18.12,47-35.63,78.65-51.38,172.1-85.5,203.7-218.8,209.5-266.7A16,16,0,0,0,431.93.08L399.6,0a16,16,0,0,0-16,13.83c-.75,4.88-1.87,11.17-3.37,18.17H67.74c-1.5-7-2.66-13.19-3.41-18.19A15.87,15.87,0,0,0,48.36,0L16.1.13A16,16,0,0,0,.14,18C5.27,60.85,31.43,171.78,160,256.08,31.55,340.3,5.24,451.2.12,494.1ZM223.9,219.7c-25.1-13.8-46.3-28.4-64.2-43.7H288.2A365.85,365.85,0,0,1,223.9,219.7ZM355.1,96a225.67,225.67,0,0,1-21,31.1h-221a269.62,269.62,0,0,1-21-32ZM93,415.1a301.9,301.9,0,0,1,20.87-32h219.4a257.82,257.82,0,0,1,21.23,32Z" transform="translate(-0.01 0)"/></svg>